<svg xmlns="http://www.w3.org/2000/svg" viewBox="0 0 1200 800" width="1200" height="800">
  <defs><filter id="shadow" x="-20%" y="-20%" width="140%" height="160%"><feDropShadow dx="0" dy="18" stdDeviation="16" flood-color="#102C45" flood-opacity=".16"/></filter></defs>
  <rect x="20" y="20" width="1160" height="760" rx="52" fill="#F7F2E9"/>
  <path d="M110 660H1090" stroke="#CDD2D2" stroke-width="18" stroke-linecap="round"/>
  <g filter="url(#shadow)">
    <path d="M210 650H990M260 650V170H940V650" fill="none" stroke="#102C45" stroke-width="38" stroke-linecap="round" stroke-linejoin="round"/>
    <rect x="290" y="215" width="120" height="350" rx="28" fill="#E1E5E3" stroke="#102C45" stroke-width="18"/>
    <path d="M325 275H375M325 345H375M325 415H375M325 485H375" stroke="#8FA995" stroke-width="22" stroke-linecap="round"/>
    <rect x="515" y="270" width="170" height="285" rx="42" fill="#8FA995" stroke="#102C45" stroke-width="18"/>
    <rect x="475" y="510" width="250" height="112" rx="40" fill="#8FA995" stroke="#102C45" stroke-width="18"/>
    <circle cx="600" cy="560" r="38" fill="#C97845" stroke="#102C45" stroke-width="14"/>
    <path d="M600 560L430 465M600 560L770 465" stroke="#102C45" stroke-width="34" stroke-linecap="round"/>
    <rect x="360" y="420" width="135" height="70" rx="32" fill="#8FA995" stroke="#102C45" stroke-width="14" transform="rotate(30 428 455)"/>
    <rect x="705" y="420" width="135" height="70" rx="32" fill="#8FA995" stroke="#102C45" stroke-width="14" transform="rotate(-30 773 455)"/>
    <path d="M430 465L350 570M770 465L850 570" stroke="#C97845" stroke-width="24" stroke-linecap="round"/>
    <path d="M330 590H440M760 590H870" stroke="#102C45" stroke-width="28" stroke-linecap="round"/>
  </g>
</svg>
