<svg xmlns="http://www.w3.org/2000/svg" viewBox="0 0 1200 800" width="1200" height="800">
  <defs>
    <linearGradient id="frame" x1="0" y1="0" x2="1" y2="1"><stop stop-color="#173A58"/><stop offset="1" stop-color="#0D253B"/></linearGradient>
    <filter id="shadow" x="-20%" y="-20%" width="140%" height="160%"><feDropShadow dx="0" dy="18" stdDeviation="16" flood-color="#102C45" flood-opacity=".16"/></filter>
  </defs>
  <rect x="20" y="20" width="1160" height="760" rx="52" fill="#F7F2E9"/>
  <path d="M130 650H1070" stroke="#CDD2D2" stroke-width="18" stroke-linecap="round"/>
  <g filter="url(#shadow)">
    <ellipse cx="550" cy="520" rx="160" ry="160" fill="#E4E7E4" stroke="#8FA995" stroke-width="28"/>
    <circle cx="550" cy="520" r="50" fill="#C97845"/>
    <path d="M550 520L398 322L760 520L890 648H310" fill="none" stroke="url(#frame)" stroke-width="42" stroke-linecap="round" stroke-linejoin="round"/>
    <path d="M400 322V246M328 246H472" stroke="#102C45" stroke-width="34" stroke-linecap="round"/>
    <rect x="318" y="205" width="170" height="52" rx="25" fill="#8FA995"/>
    <path d="M760 520L825 280L925 206" fill="none" stroke="#102C45" stroke-width="38" stroke-linecap="round" stroke-linejoin="round"/>
    <path d="M850 278H1010M938 206L1002 270" stroke="#102C45" stroke-width="30" stroke-linecap="round"/>
    <rect x="842" y="128" width="146" height="112" rx="28" fill="#8FA995" stroke="#102C45" stroke-width="16"/>
    <path d="M520 494L450 448M580 546L650 592" stroke="#102C45" stroke-width="22" stroke-linecap="round"/>
    <rect x="395" y="414" width="112" height="34" rx="17" fill="#C97845" transform="rotate(30 451 431)"/>
    <rect x="594" y="578" width="112" height="34" rx="17" fill="#C97845" transform="rotate(30 650 595)"/>
  </g>
</svg>
