<svg xmlns="http://www.w3.org/2000/svg" viewBox="0 0 1200 800" width="1200" height="800">
  <defs><filter id="shadow" x="-20%" y="-20%" width="140%" height="160%"><feDropShadow dx="0" dy="18" stdDeviation="16" flood-color="#102C45" flood-opacity=".16"/></filter></defs>
  <rect x="20" y="20" width="1160" height="760" rx="52" fill="#F7F2E9"/>
  <path d="M120 660H1080" stroke="#CDD2D2" stroke-width="18" stroke-linecap="round"/>
  <g filter="url(#shadow)">
    <path d="M245 650V150H960V650M210 650H1000" fill="none" stroke="#102C45" stroke-width="38" stroke-linecap="round" stroke-linejoin="round"/>
    <rect x="286" y="195" width="120" height="365" rx="28" fill="#E1E5E3" stroke="#102C45" stroke-width="18"/>
    <path d="M322 250H370M322 315H370M322 380H370M322 445H370M322 510H370" stroke="#8FA995" stroke-width="24" stroke-linecap="round"/>
    <rect x="505" y="305" width="170" height="285" rx="40" fill="#8FA995" stroke="#102C45" stroke-width="18"/>
    <rect x="485" y="545" width="210" height="92" rx="34" fill="#8FA995" stroke="#102C45" stroke-width="18"/>
    <path d="M585 220L455 335L470 475M595 220L725 335L710 475" fill="none" stroke="#102C45" stroke-width="34" stroke-linecap="round" stroke-linejoin="round"/>
    <path d="M470 475L590 445M710 475L590 445" stroke="#C97845" stroke-width="30" stroke-linecap="round"/>
    <path d="M560 445H620" stroke="#102C45" stroke-width="22" stroke-linecap="round"/>
    <circle cx="590" cy="220" r="42" fill="#C97845" stroke="#102C45" stroke-width="14"/>
    <path d="M820 650V210H930" fill="none" stroke="#102C45" stroke-width="34" stroke-linecap="round"/>
  </g>
</svg>
