<svg xmlns="http://www.w3.org/2000/svg" viewBox="0 0 1200 800" width="1200" height="800">
  <defs><filter id="shadow" x="-20%" y="-20%" width="140%" height="160%"><feDropShadow dx="0" dy="18" stdDeviation="16" flood-color="#102C45" flood-opacity=".16"/></filter></defs>
  <rect x="20" y="20" width="1160" height="760" rx="52" fill="#F7F2E9"/>
  <path d="M110 660H1090" stroke="#CDD2D2" stroke-width="18" stroke-linecap="round"/>
  <g filter="url(#shadow)">
    <path d="M190 650H1010M245 650V190H955V650" fill="none" stroke="#102C45" stroke-width="38" stroke-linecap="round" stroke-linejoin="round"/>
    <rect x="285" y="230" width="120" height="330" rx="28" fill="#E1E5E3" stroke="#102C45" stroke-width="18"/>
    <path d="M320 285H370M320 350H370M320 415H370M320 480H370" stroke="#8FA995" stroke-width="22" stroke-linecap="round"/>
    <rect x="435" y="405" width="260" height="112" rx="38" fill="#8FA995" stroke="#102C45" stroke-width="18" transform="rotate(-10 565 461)"/>
    <path d="M600 510L785 405L885 535" fill="none" stroke="#102C45" stroke-width="38" stroke-linecap="round" stroke-linejoin="round"/>
    <path d="M500 585H900" stroke="#102C45" stroke-width="44" stroke-linecap="round"/>
    <rect x="505" y="550" width="390" height="88" rx="32" fill="#E1E5E3" stroke="#102C45" stroke-width="18"/>
    <path d="M395 360L760 445" stroke="#C97845" stroke-width="30" stroke-linecap="round"/>
    <rect x="610" y="405" width="170" height="75" rx="36" fill="#C97845" stroke="#102C45" stroke-width="14" transform="rotate(13 695 443)"/>
    <circle cx="395" cy="360" r="38" fill="#C97845" stroke="#102C45" stroke-width="14"/>
  </g>
</svg>
