<svg xmlns="http://www.w3.org/2000/svg" viewBox="0 0 1200 800" width="1200" height="800">
  <defs><filter id="shadow" x="-20%" y="-20%" width="140%" height="160%"><feDropShadow dx="0" dy="18" stdDeviation="16" flood-color="#102C45" flood-opacity=".16"/></filter></defs>
  <rect x="20" y="20" width="1160" height="760" rx="52" fill="#F7F2E9"/>
  <path d="M115 660H1085" stroke="#CDD2D2" stroke-width="18" stroke-linecap="round"/>
  <g filter="url(#shadow)">
    <path d="M250 650V160H950V650M205 650H995" fill="none" stroke="#102C45" stroke-width="38" stroke-linecap="round" stroke-linejoin="round"/>
    <rect x="280" y="210" width="120" height="350" rx="28" fill="#E1E5E3" stroke="#102C45" stroke-width="18"/>
    <path d="M315 265H365M315 335H365M315 405H365M315 475H365" stroke="#8FA995" stroke-width="22" stroke-linecap="round"/>
    <rect x="515" y="320" width="170" height="270" rx="42" fill="#8FA995" stroke="#102C45" stroke-width="18"/>
    <rect x="490" y="550" width="220" height="88" rx="34" fill="#8FA995" stroke="#102C45" stroke-width="18"/>
    <circle cx="600" cy="315" r="42" fill="#C97845" stroke="#102C45" stroke-width="14"/>
    <path d="M600 315L405 360L355 500M600 315L795 360L845 500" fill="none" stroke="#102C45" stroke-width="34" stroke-linecap="round" stroke-linejoin="round"/>
    <rect x="324" y="470" width="125" height="64" rx="30" fill="#8FA995" stroke="#102C45" stroke-width="14" transform="rotate(-18 386 502)"/>
    <rect x="751" y="470" width="125" height="64" rx="30" fill="#8FA995" stroke="#102C45" stroke-width="14" transform="rotate(18 814 502)"/>
    <path d="M600 315V210" stroke="#C97845" stroke-width="20" stroke-linecap="round"/>
  </g>
</svg>
