<svg xmlns="http://www.w3.org/2000/svg" viewBox="0 0 1200 800" width="1200" height="800">
  <defs>
    <filter id="shadow" x="-20%" y="-20%" width="140%" height="160%"><feDropShadow dx="0" dy="18" stdDeviation="16" flood-color="#102C45" flood-opacity=".16"/></filter>
    <linearGradient id="rail" x1="0" y1="1" x2="1" y2="0"><stop stop-color="#173A58"/><stop offset="1" stop-color="#0D253B"/></linearGradient>
  </defs>
  <rect x="20" y="20" width="1160" height="760" rx="52" fill="#F7F2E9"/>
  <path d="M115 660H1085" stroke="#CDD2D2" stroke-width="18" stroke-linecap="round"/>
  <g filter="url(#shadow)">
    <path d="M250 625L900 170M350 660L1000 205" stroke="url(#rail)" stroke-width="32" stroke-linecap="round"/>
    <path d="M225 650H480M800 650H1030" stroke="#102C45" stroke-width="42" stroke-linecap="round"/>
    <path d="M270 560L510 445" stroke="#102C45" stroke-width="48" stroke-linecap="round"/>
    <rect x="185" y="345" width="215" height="300" rx="46" fill="#8FA995" stroke="#102C45" stroke-width="18" transform="rotate(-28 292 495)"/>
    <rect x="375" y="515" width="250" height="105" rx="34" fill="#8FA995" stroke="#102C45" stroke-width="18" transform="rotate(-12 500 568)"/>
    <g transform="translate(790 150) rotate(-34 130 150)">
      <rect x="25" y="20" width="260" height="300" rx="32" fill="#E1E5E3" stroke="#102C45" stroke-width="24"/>
      <path d="M70 72H240M70 142H240M70 212H240M70 282H240" stroke="#8FA995" stroke-width="18" stroke-linecap="round"/>
    </g>
    <path d="M650 450L820 330" stroke="#C97845" stroke-width="24" stroke-linecap="round"/>
    <circle cx="650" cy="450" r="34" fill="#C97845"/>
    <circle cx="820" cy="330" r="34" fill="#C97845"/>
  </g>
</svg>
